<svg width="30" height="37" viewBox="0 0 30 37" fill="none" xmlns="http://www.w3.org/2000/svg">
<path fill-rule="evenodd" clip-rule="evenodd" d="M2.3729 0.0141602H27.6269C28.8643 0.0215845 29.8634 1.02677 29.8634 2.26416V11.6587C29.8984 21.8124 24.3136 31.1525 15.3524 35.9272C15.2438 35.9846 15.1228 36.0145 14.9999 36.0142C14.8774 36.0141 14.7568 35.9837 14.6489 35.9257C5.68639 31.1529 0.100613 21.8127 0.136401 11.6587V2.26416C0.136379 1.02677 1.13554 0.0215845 2.3729 0.0141602ZM13.1999 21.9817L23.8499 11.9317C24.2395 11.5632 24.4029 11.0149 24.2787 10.4933C24.1544 9.9717 23.7613 9.55601 23.2474 9.40282C22.7336 9.24963 22.177 9.38223 21.7874 9.75066L12.1949 18.7912L9.6719 16.2412C9.29712 15.8498 8.74042 15.691 8.21558 15.8258C7.69075 15.9605 7.27938 16.3678 7.13945 16.8913C6.99952 17.4148 7.15279 17.973 7.5404 18.3517L11.0999 21.9457C11.6733 22.5275 12.6069 22.5435 13.1999 21.9817Z" fill="#141922"/>
</svg>
