<svg width="72" height="73" viewBox="0 0 72 73" fill="none" xmlns="http://www.w3.org/2000/svg">
<rect y="0.0141602" width="72" height="72" rx="36" fill="#090E16"/>
<path d="M61 34.3258C61 38.4371 59.9861 42.4849 58.048 46.1107C56.11 49.7365 53.3077 52.8284 49.8893 55.1125C46.4709 57.3966 42.5419 58.8024 38.4504 59.2054C34.359 59.6084 30.2312 58.9961 26.4329 57.4228C22.6346 55.8495 19.2829 53.3637 16.6747 50.1856C14.0666 47.0076 12.2824 43.2353 11.4804 39.2031C10.6783 35.1708 10.8831 31.0029 12.0765 27.0687C13.2699 23.1344 15.4152 19.5552 18.3223 16.6481L23.3549 21.6807C21.2754 23.7602 19.7408 26.3204 18.8871 29.1347C18.0334 31.9489 17.887 34.9302 18.4607 37.8146C19.0345 40.6989 20.3107 43.3973 22.1763 45.6706C24.042 47.9439 26.4395 49.722 29.1565 50.8474C31.8735 51.9729 34.8261 52.4108 37.7528 52.1226C40.6795 51.8343 43.49 50.8287 45.9352 49.1949C48.3804 47.561 50.385 45.3494 51.7713 42.7557C53.1576 40.1621 53.8829 37.2667 53.8829 34.3258H61Z" fill="#EFF5FF"/>
</svg>
