<svg width="72" height="73" viewBox="0 0 72 73" fill="none" xmlns="http://www.w3.org/2000/svg">
<rect y="0.0141602" width="72" height="72" rx="36" fill="#090E16"/>
<path d="M61 36.3258C61 31.3813 59.5338 26.5478 56.7867 22.4366C54.0397 18.3253 50.1352 15.121 45.5671 13.2288C40.9989 11.3366 35.9723 10.8415 31.1227 11.8062C26.2732 12.7708 21.8186 15.1518 18.3223 18.6481C14.826 22.1444 12.445 26.599 11.4804 31.4485C10.5157 36.2981 11.0108 41.3247 12.903 45.8929C14.7952 50.461 17.9995 54.3655 22.1107 57.1125C26.222 59.8596 31.0555 61.3258 36 61.3258V54.2083C32.4632 54.2083 29.0058 53.1595 26.065 51.1946C23.1243 49.2296 20.8322 46.4367 19.4787 43.1691C18.1252 39.9015 17.7711 36.306 18.4611 32.8371C19.1511 29.3682 20.8543 26.1819 23.3552 23.681C25.8561 21.1801 29.0424 19.4769 32.5113 18.7869C35.9802 18.0969 39.5757 18.451 42.8433 19.8045C46.1109 21.158 48.9038 23.4501 50.8688 26.3908C52.8337 29.3316 53.8825 32.789 53.8825 36.3258H61Z" fill="#EFF5FF"/>
</svg>
