<svg width="72" height="73" viewBox="0 0 72 73" fill="none" xmlns="http://www.w3.org/2000/svg">
<rect y="0.0141602" width="72" height="72" rx="36" fill="#090E16"/>
<path d="M62 36.3258C62 31.0829 60.3517 25.9727 57.2882 21.718C54.2247 17.4632 49.9011 14.2793 44.9289 12.6165C39.9567 10.9537 34.5875 10.8961 29.5808 12.4521C24.5741 14.008 20.1833 17.0986 17.0294 21.2867C13.8754 25.4749 12.118 30.5486 12.0057 35.7903C11.8934 41.032 13.4319 46.1763 16.4035 50.4957C19.3752 54.8151 23.6296 58.0909 28.565 59.8599C33.5005 61.6288 38.8672 61.8013 43.9061 60.353L41.9399 53.5125C38.3356 54.5484 34.4968 54.425 30.9665 53.1597C27.4361 51.8944 24.393 49.5512 22.2673 46.4615C20.1417 43.3719 19.0413 39.6921 19.1216 35.9427C19.2019 32.1934 20.459 28.5641 22.715 25.5683C24.971 22.5726 28.1118 20.3619 31.6931 19.2489C35.2744 18.136 39.1149 18.1771 42.6715 19.3665C46.2282 20.5559 49.3208 22.8334 51.5121 25.8768C53.7035 28.9202 54.8825 32.5756 54.8825 36.3258H62Z" fill="#EFF5FF"/>
</svg>
