<svg width="72" height="73" viewBox="0 0 72 73" fill="none" xmlns="http://www.w3.org/2000/svg">
<rect y="0.0141602" width="72" height="72" rx="36" fill="#090E16"/>
<path d="M61 38.3258C61 42.4371 59.9861 46.4849 58.048 50.1107C56.11 53.7365 53.3077 56.8284 49.8893 59.1125C46.4709 61.3966 42.5419 62.8024 38.4504 63.2054C34.359 63.6084 30.2312 62.9961 26.4329 61.4228C22.6346 59.8495 19.2829 57.3637 16.6747 54.1856C14.0666 51.0076 12.2824 47.2353 11.4804 43.2031C10.6783 39.1708 10.8831 35.0029 12.0765 31.0687C13.2699 27.1344 15.4152 23.5552 18.3223 20.6481L23.3552 25.681C21.2757 27.7604 19.7412 30.3206 18.8875 33.1348C18.0338 35.949 17.8874 38.9302 18.4611 41.8145C19.0348 44.6988 20.311 47.3971 22.1766 49.6703C24.0423 51.9436 26.4397 53.7217 29.1567 54.8471C31.8736 55.9725 34.8262 56.4104 37.7528 56.1222C40.6794 55.8339 43.4898 54.8284 45.935 53.1946C48.3802 51.5607 50.3847 49.3491 51.771 46.7556C53.1572 44.162 53.8825 41.2666 53.8825 38.3258H61Z" fill="#EFF5FF"/>
</svg>
