<svg width="72" height="73" viewBox="0 0 72 73" fill="none" xmlns="http://www.w3.org/2000/svg">
<rect y="0.0141602" width="72" height="72" rx="36" fill="#090E16"/>
<path d="M61 36.3258C61 32.2145 59.9861 28.1667 58.048 24.5409C56.11 20.9151 53.3077 17.8232 49.8893 15.5391C46.4709 13.255 42.5419 11.8492 38.4504 11.4462C34.359 11.0432 30.2312 11.6555 26.4329 13.2288C22.6346 14.8021 19.2829 17.2879 16.6747 20.466C14.0666 23.644 12.2824 27.4163 11.4804 31.4485C10.6783 35.4808 10.8831 39.6487 12.0765 43.5829C13.2699 47.5172 15.4152 51.0964 18.3223 54.0035L23.3552 48.9706C21.2757 46.8912 19.7412 44.331 18.8875 41.5168C18.0338 38.7027 17.8874 35.7214 18.4611 32.8371C19.0348 29.9528 20.311 27.2545 22.1766 24.9813C24.0423 22.708 26.4397 20.9299 29.1567 19.8045C31.8736 18.6791 34.8262 18.2412 37.7528 18.5294C40.6794 18.8177 43.4898 19.8232 45.935 21.4571C48.3802 23.0909 50.3847 25.3025 51.771 27.8961C53.1572 30.4896 53.8825 33.385 53.8825 36.3258H61Z" fill="#EFF5FF"/>
</svg>
