<svg width="71" height="73" viewBox="0 0 71 73" fill="none" xmlns="http://www.w3.org/2000/svg">
<rect y="0.0141602" width="71" height="72" rx="35.5" fill="#090E16"/>
<path d="M39.9997 61.0038C44.2612 60.3131 48.2712 58.5307 51.6392 55.8301C55.0072 53.1294 57.6185 49.6027 59.2189 45.5932C60.8192 41.5837 61.354 37.2281 60.7711 32.9506C60.1883 28.6731 58.5077 24.6193 55.893 21.1842C53.2783 17.749 49.8186 15.0495 45.8508 13.3484C41.883 11.6473 37.5423 11.0027 33.2515 11.4774C28.9606 11.952 24.8657 13.5297 21.3656 16.0568C17.8655 18.5839 15.0794 21.9743 13.2787 25.8978L19.7475 28.8667C21.0355 26.0602 23.0284 23.635 25.532 21.8274C28.0356 20.0197 30.9647 18.8912 34.034 18.5517C37.1032 18.2122 40.2081 18.6733 43.0463 19.8901C45.8845 21.1068 48.3592 23.0378 50.2295 25.495C52.0997 27.9522 53.3019 30.8518 53.7188 33.9115C54.1357 36.9712 53.7532 40.0868 52.6085 42.9548C51.4637 45.8228 49.5959 48.3454 47.1867 50.2772C44.7776 52.2089 41.9092 53.4839 38.861 53.978L39.9997 61.0038Z" fill="#EFF5FF"/>
</svg>
